# xmcd
#
# Track frame offsets:
#	150
#	20395
#	36139
#	47878
#	60825
#	76492
#	86641
#	102734
#	111014
#	130112
#	144449
#	155977
#	171180
#	183887
#	197068
#	215346
#
# Disc length: 3017 seconds
#
# Revision: 1
# Processed by: cddbd v1.5.2PL0 Copyright (c) Steve Scherf et al.
# Submitted via: audiograbber 1.83.01
#
DISCID=da0bc710
DTITLE=Various Artist - Blues Legends
DYEAR=2004
DGENRE=Blues
TTITLE0=Muddy Waters - Baby Please Don't Go (live)
TTITLE1=Screaming Jay Hawkins - I put a spell on you
TTITLE2=Ray Charles - C C Rider
TTITLE3=Robert Johnson - Rambling On My Mind
TTITLE4=BB King - The Letter (live)
TTITLE5=John Lee Hooker - Dimples
TTITLE6=Maxine Sullivan - It Ain't Necessarily So
TTITLE7=Dr John - New Orleans
TTITLE8=Big Joe Turner - When The Sun Goes Down
TTITLE9=Memphis Minnie - When The Levee Breaks
TTITLE10=Leadbelly - Rock Island Line
TTITLE11=Mildred Bailey - Georgia On My Mind
TTITLE12=Jimmy Reed - Shame Shame Shame
TTITLE13=Dinah Washington - Rich mans Blues
TTITLE14=Muddy Waters - Got My Mojo Working (live)
TTITLE15=Ray Charles - A Sentimental Blues
EXTD=Disc 2
EXTT0=
EXTT1=
EXTT2=
EXTT3=
EXTT4=
EXTT5=
EXTT6=
EXTT7=
EXTT8=
EXTT9=
EXTT10=
EXTT11=
EXTT12=
EXTT13=
EXTT14=
EXTT15=
PLAYORDER=
